<svg width="381" height="149" viewBox="0 0 381 149" fill="none" xmlns="http://www.w3.org/2000/svg">
<g opacity="0.3">
<path d="M76.2027 76.4832C76.2027 96.7332 59.6907 113.164 39.3042 113.164C18.9177 113.164 2.40576 96.7332 2.40576 76.4832C2.40576 56.2332 18.9177 39.8027 39.3042 39.8027C59.6907 39.8027 76.2027 56.2332 76.2027 76.4832Z" fill="url(#paint0_linear_107_1278)" stroke="#4F473B" stroke-width="3"/>
<path d="M124.726 95.6414C124.726 115.891 108.214 132.322 87.8278 132.322C67.4413 132.322 50.9293 115.891 50.9293 95.6414C50.9293 75.3914 67.4413 58.9609 87.8278 58.9609C108.214 58.9609 124.726 75.3914 124.726 95.6414Z" fill="url(#paint1_linear_107_1278)" stroke="#4F473B" stroke-width="3"/>
<path d="M165.48 57.5784C165.48 77.8063 148.718 94.2589 127.973 94.2589C107.227 94.2589 90.4646 77.8063 90.4646 57.5784C90.4646 37.3505 107.227 20.8979 127.973 20.8979C148.718 20.8979 165.48 37.3505 165.48 57.5784Z" fill="url(#paint2_linear_107_1278)" stroke="#4F473B" stroke-width="3"/>
<path d="M124.726 38.6736C124.726 58.9237 108.214 75.3541 87.8278 75.3541C67.4413 75.3541 50.9293 58.9237 50.9293 38.6736C50.9293 18.4236 67.4413 1.99316 87.8278 1.99316C108.214 1.99316 124.726 18.4236 124.726 38.6736Z" fill="url(#paint3_linear_107_1278)" stroke="#4F473B" stroke-width="3"/>
<path d="M217.515 45.6385C217.515 65.8664 200.753 82.319 180.007 82.319C159.262 82.319 142.5 65.8664 142.5 45.6385C142.5 25.4106 159.262 8.95801 180.007 8.95801C200.753 8.95801 217.515 25.4106 217.515 45.6385Z" fill="url(#paint4_linear_107_1278)" stroke="#4F473B" stroke-width="3"/>
<path d="M273.116 57.5784C273.116 77.8511 256.855 94.2589 236.827 94.2589C216.8 94.2589 200.538 77.8511 200.538 57.5784C200.538 37.3057 216.8 20.8979 236.827 20.8979C256.855 20.8979 273.116 37.3057 273.116 57.5784Z" fill="url(#paint5_linear_107_1278)" stroke="#4F473B" stroke-width="3"/>
<path d="M168.046 110.313C168.046 130.585 151.784 146.993 131.757 146.993C111.73 146.993 95.468 130.585 95.468 110.313C95.468 90.0401 111.73 73.6323 131.757 73.6323C151.784 73.6323 168.046 90.0401 168.046 110.313Z" fill="url(#paint6_linear_107_1278)" stroke="#4F473B" stroke-width="3"/>
<path d="M334.394 95.6414C334.394 115.891 317.882 132.322 297.495 132.322C277.109 132.322 260.597 115.891 260.597 95.6414C260.597 75.3914 277.109 58.9609 297.495 58.9609C317.882 58.9609 334.394 75.3914 334.394 95.6414Z" fill="url(#paint7_linear_107_1278)" stroke="#4F473B" stroke-width="3"/>
<path d="M379.406 79.4681C379.406 99.7181 362.894 116.149 342.507 116.149C322.121 116.149 305.609 99.7181 305.609 79.4681C305.609 59.218 322.121 42.7876 342.507 42.7876C362.894 42.7876 379.406 59.218 379.406 79.4681Z" fill="url(#paint8_linear_107_1278)" stroke="#4F473B" stroke-width="3"/>
<path d="M331.592 38.6736C331.592 58.9016 314.83 75.3541 294.084 75.3541C273.338 75.3541 256.576 58.9016 256.576 38.6736C256.576 18.4457 273.338 1.99316 294.084 1.99316C314.83 1.99316 331.592 18.4457 331.592 38.6736Z" fill="url(#paint9_linear_107_1278)" stroke="#4F473B" stroke-width="3"/>
<path d="M292.566 110.313C292.566 130.541 275.803 146.993 255.058 146.993C234.312 146.993 217.55 130.541 217.55 110.313C217.55 90.0849 234.312 73.6323 255.058 73.6323C275.803 73.6323 292.566 90.0849 292.566 110.313Z" fill="url(#paint10_linear_107_1278)" stroke="#4F473B" stroke-width="3"/>
<path d="M223.301 105.338C223.301 125.588 206.789 142.019 186.403 142.019C166.016 142.019 149.504 125.588 149.504 105.338C149.504 85.0882 166.016 68.6577 186.403 68.6577C206.789 68.6577 223.301 85.0882 223.301 105.338Z" fill="url(#paint11_linear_107_1278)" stroke="#4F473B" stroke-width="3"/>
</g>
<g filter="url(#filter0_d_107_1278)">
<path d="M96.1242 84.3906V70.3906H99.1642L103.624 79.2706L108.024 70.3906H111.064V84.3906H108.504V74.7306L104.604 82.3906H102.584L98.6842 74.7306V84.3906H96.1242ZM118.54 84.6306C117.54 84.6306 116.654 84.4173 115.88 83.9906C115.107 83.564 114.5 82.964 114.06 82.1906C113.62 81.4173 113.4 80.524 113.4 79.5106C113.4 78.484 113.614 77.5706 114.04 76.7706C114.48 75.9706 115.08 75.3506 115.84 74.9106C116.614 74.4573 117.52 74.2306 118.56 74.2306C119.534 74.2306 120.394 74.444 121.14 74.8706C121.887 75.2973 122.467 75.884 122.88 76.6306C123.307 77.364 123.52 78.184 123.52 79.0906C123.52 79.2373 123.514 79.3906 123.5 79.5506C123.5 79.7106 123.494 79.8773 123.48 80.0506H115.94C115.994 80.824 116.26 81.4306 116.74 81.8706C117.234 82.3106 117.827 82.5306 118.52 82.5306C119.04 82.5306 119.474 82.4173 119.82 82.1906C120.18 81.9506 120.447 81.644 120.62 81.2706H123.22C123.034 81.8973 122.72 82.4706 122.28 82.9906C121.854 83.4973 121.32 83.8973 120.68 84.1906C120.054 84.484 119.34 84.6306 118.54 84.6306ZM118.56 76.3106C117.934 76.3106 117.38 76.4906 116.9 76.8506C116.42 77.1973 116.114 77.7306 115.98 78.4506H120.92C120.88 77.7973 120.64 77.2773 120.2 76.8906C119.76 76.504 119.214 76.3106 118.56 76.3106ZM129.918 84.3906C128.878 84.3906 128.044 84.1373 127.418 83.6306C126.791 83.124 126.478 82.224 126.478 80.9306V76.6106H124.778V74.4706H126.478L126.778 71.8106H129.038V74.4706H131.718V76.6106H129.038V80.9506C129.038 81.4306 129.138 81.764 129.338 81.9506C129.551 82.124 129.911 82.2106 130.418 82.2106H131.658V84.3906H129.918ZM137.336 84.6306C136.482 84.6306 135.782 84.4973 135.236 84.2306C134.689 83.9506 134.282 83.584 134.016 83.1306C133.749 82.6773 133.616 82.1773 133.616 81.6306C133.616 80.7106 133.976 79.964 134.696 79.3906C135.416 78.8173 136.496 78.5306 137.936 78.5306H140.456V78.2906C140.456 77.6106 140.262 77.1106 139.876 76.7906C139.489 76.4706 139.009 76.3106 138.436 76.3106C137.916 76.3106 137.462 76.4373 137.076 76.6906C136.689 76.9306 136.449 77.2906 136.356 77.7706H133.856C133.922 77.0506 134.162 76.424 134.576 75.8906C135.002 75.3573 135.549 74.9506 136.216 74.6706C136.882 74.3773 137.629 74.2306 138.456 74.2306C139.869 74.2306 140.982 74.584 141.796 75.2906C142.609 75.9973 143.016 76.9973 143.016 78.2906V84.3906H140.836L140.596 82.7906C140.302 83.324 139.889 83.764 139.356 84.1106C138.836 84.4573 138.162 84.6306 137.336 84.6306ZM137.916 82.6306C138.649 82.6306 139.216 82.3906 139.616 81.9106C140.029 81.4306 140.289 80.8373 140.396 80.1306H138.216C137.536 80.1306 137.049 80.2573 136.756 80.5106C136.462 80.7506 136.316 81.0506 136.316 81.4106C136.316 81.7973 136.462 82.0973 136.756 82.3106C137.049 82.524 137.436 82.6306 137.916 82.6306ZM147.846 84.3906L144.206 74.4706H146.886L149.406 81.9706L151.926 74.4706H154.606L150.946 84.3906H147.846ZM160.552 84.6306C159.552 84.6306 158.665 84.4173 157.892 83.9906C157.119 83.564 156.512 82.964 156.072 82.1906C155.632 81.4173 155.412 80.524 155.412 79.5106C155.412 78.484 155.625 77.5706 156.052 76.7706C156.492 75.9706 157.092 75.3506 157.852 74.9106C158.625 74.4573 159.532 74.2306 160.572 74.2306C161.545 74.2306 162.405 74.444 163.152 74.8706C163.899 75.2973 164.479 75.884 164.892 76.6306C165.319 77.364 165.532 78.184 165.532 79.0906C165.532 79.2373 165.525 79.3906 165.512 79.5506C165.512 79.7106 165.505 79.8773 165.492 80.0506H157.952C158.005 80.824 158.272 81.4306 158.752 81.8706C159.245 82.3106 159.839 82.5306 160.532 82.5306C161.052 82.5306 161.485 82.4173 161.832 82.1906C162.192 81.9506 162.459 81.644 162.632 81.2706H165.232C165.045 81.8973 164.732 82.4706 164.292 82.9906C163.865 83.4973 163.332 83.8973 162.692 84.1906C162.065 84.484 161.352 84.6306 160.552 84.6306ZM160.572 76.3106C159.945 76.3106 159.392 76.4906 158.912 76.8506C158.432 77.1973 158.125 77.7306 157.992 78.4506H162.932C162.892 77.7973 162.652 77.2773 162.212 76.8906C161.772 76.504 161.225 76.3106 160.572 76.3106ZM167.685 84.3906V74.4706H169.965L170.205 76.3306C170.565 75.6906 171.052 75.184 171.665 74.8106C172.292 74.424 173.025 74.2306 173.865 74.2306V76.9306H173.145C172.585 76.9306 172.085 77.0173 171.645 77.1906C171.205 77.364 170.859 77.664 170.605 78.0906C170.365 78.5173 170.245 79.1106 170.245 79.8706V84.3906H167.685ZM179.715 84.6306C178.835 84.6306 178.062 84.4906 177.395 84.2106C176.728 83.9173 176.195 83.5173 175.795 83.0106C175.395 82.504 175.155 81.9173 175.075 81.2506H177.655C177.735 81.6373 177.948 81.9706 178.295 82.2506C178.655 82.5173 179.115 82.6506 179.675 82.6506C180.235 82.6506 180.642 82.5373 180.895 82.3106C181.162 82.084 181.295 81.824 181.295 81.5306C181.295 81.104 181.108 80.8173 180.735 80.6706C180.362 80.5106 179.842 80.3573 179.175 80.2106C178.748 80.1173 178.315 80.004 177.875 79.8706C177.435 79.7373 177.028 79.5706 176.655 79.3706C176.295 79.1573 176.002 78.8906 175.775 78.5706C175.548 78.2373 175.435 77.8306 175.435 77.3506C175.435 76.4706 175.782 75.7306 176.475 75.1306C177.182 74.5306 178.168 74.2306 179.435 74.2306C180.608 74.2306 181.542 74.504 182.235 75.0506C182.942 75.5973 183.362 76.3506 183.495 77.3106H181.075C180.928 76.5773 180.375 76.2106 179.415 76.2106C178.935 76.2106 178.562 76.304 178.295 76.4906C178.042 76.6773 177.915 76.9106 177.915 77.1906C177.915 77.484 178.108 77.7173 178.495 77.8906C178.882 78.064 179.395 78.224 180.035 78.3706C180.728 78.5306 181.362 78.7106 181.935 78.9106C182.522 79.0973 182.988 79.384 183.335 79.7706C183.682 80.144 183.855 80.684 183.855 81.3906C183.868 82.004 183.708 82.5573 183.375 83.0506C183.042 83.544 182.562 83.9306 181.935 84.2106C181.308 84.4906 180.568 84.6306 179.715 84.6306ZM190.943 84.6306C189.943 84.6306 189.056 84.4173 188.283 83.9906C187.509 83.564 186.903 82.964 186.463 82.1906C186.023 81.4173 185.803 80.524 185.803 79.5106C185.803 78.484 186.016 77.5706 186.443 76.7706C186.883 75.9706 187.483 75.3506 188.243 74.9106C189.016 74.4573 189.923 74.2306 190.963 74.2306C191.936 74.2306 192.796 74.444 193.543 74.8706C194.289 75.2973 194.869 75.884 195.283 76.6306C195.709 77.364 195.923 78.184 195.923 79.0906C195.923 79.2373 195.916 79.3906 195.903 79.5506C195.903 79.7106 195.896 79.8773 195.883 80.0506H188.343C188.396 80.824 188.663 81.4306 189.143 81.8706C189.636 82.3106 190.229 82.5306 190.923 82.5306C191.443 82.5306 191.876 82.4173 192.223 82.1906C192.583 81.9506 192.849 81.644 193.023 81.2706H195.623C195.436 81.8973 195.123 82.4706 194.683 82.9906C194.256 83.4973 193.723 83.8973 193.083 84.1906C192.456 84.484 191.743 84.6306 190.943 84.6306ZM190.963 76.3106C190.336 76.3106 189.783 76.4906 189.303 76.8506C188.823 77.1973 188.516 77.7306 188.383 78.4506H193.323C193.283 77.7973 193.043 77.2773 192.603 76.8906C192.163 76.504 191.616 76.3106 190.963 76.3106ZM202.902 84.3906V70.3906H205.462V76.2106H211.742V70.3906H214.302V84.3906H211.742V78.2906H205.462V84.3906H202.902ZM218.343 72.9306C217.876 72.9306 217.489 72.7906 217.183 72.5106C216.889 72.2306 216.743 71.8773 216.743 71.4506C216.743 71.024 216.889 70.6773 217.183 70.4106C217.489 70.1306 217.876 69.9906 218.343 69.9906C218.809 69.9906 219.189 70.1306 219.483 70.4106C219.789 70.6773 219.943 71.024 219.943 71.4506C219.943 71.8773 219.789 72.2306 219.483 72.5106C219.189 72.7906 218.809 72.9306 218.343 72.9306ZM217.063 84.3906V74.4706H219.623V84.3906H217.063ZM227.155 84.6306C226.141 84.6306 225.248 84.4106 224.475 83.9706C223.701 83.5306 223.088 82.9173 222.635 82.1306C222.195 81.344 221.975 80.444 221.975 79.4306C221.975 78.4173 222.195 77.5173 222.635 76.7306C223.088 75.944 223.701 75.3306 224.475 74.8906C225.248 74.4506 226.141 74.2306 227.155 74.2306C228.421 74.2306 229.488 74.564 230.355 75.2306C231.221 75.884 231.775 76.7906 232.015 77.9506H229.315C229.181 77.4706 228.915 77.0973 228.515 76.8306C228.128 76.5506 227.668 76.4106 227.135 76.4106C226.428 76.4106 225.828 76.6773 225.335 77.2106C224.841 77.744 224.595 78.484 224.595 79.4306C224.595 80.3773 224.841 81.1173 225.335 81.6506C225.828 82.184 226.428 82.4506 227.135 82.4506C227.668 82.4506 228.128 82.3173 228.515 82.0506C228.915 81.784 229.181 81.404 229.315 80.9106H232.015C231.775 82.0306 231.221 82.9306 230.355 83.6106C229.488 84.2906 228.421 84.6306 227.155 84.6306ZM234.287 84.3906V69.9906H236.847V75.9906C237.18 75.444 237.627 75.0173 238.187 74.7106C238.76 74.3906 239.413 74.2306 240.147 74.2306C241.373 74.2306 242.32 74.6173 242.987 75.3906C243.667 76.164 244.007 77.2973 244.007 78.7906V84.3906H241.467V79.0306C241.467 78.1773 241.293 77.524 240.947 77.0706C240.613 76.6173 240.08 76.3906 239.347 76.3906C238.627 76.3906 238.027 76.644 237.547 77.1506C237.08 77.6573 236.847 78.364 236.847 79.2706V84.3906H234.287ZM251.22 84.3906V69.9906H253.78V75.9906C254.114 75.444 254.56 75.0173 255.12 74.7106C255.694 74.3906 256.347 74.2306 257.08 74.2306C258.307 74.2306 259.254 74.6173 259.92 75.3906C260.6 76.164 260.94 77.2973 260.94 78.7906V84.3906H258.4V79.0306C258.4 78.1773 258.227 77.524 257.88 77.0706C257.547 76.6173 257.014 76.3906 256.28 76.3906C255.56 76.3906 254.96 76.644 254.48 77.1506C254.014 77.6573 253.78 78.364 253.78 79.2706V84.3906H251.22ZM264.768 72.9306C264.302 72.9306 263.915 72.7906 263.608 72.5106C263.315 72.2306 263.168 71.8773 263.168 71.4506C263.168 71.024 263.315 70.6773 263.608 70.4106C263.915 70.1306 264.302 69.9906 264.768 69.9906C265.235 69.9906 265.615 70.1306 265.908 70.4106C266.215 70.6773 266.368 71.024 266.368 71.4506C266.368 71.8773 266.215 72.2306 265.908 72.5106C265.615 72.7906 265.235 72.9306 264.768 72.9306ZM263.488 84.3906V74.4706H266.048V84.3906H263.488ZM268.72 84.3906V69.9906H271.28V78.4906L274.8 74.4706H277.84L273.78 78.9906L278.5 84.3906H275.3L271.28 79.4106V84.3906H268.72ZM284.087 84.6306C283.087 84.6306 282.201 84.4173 281.427 83.9906C280.654 83.564 280.047 82.964 279.607 82.1906C279.167 81.4173 278.947 80.524 278.947 79.5106C278.947 78.484 279.161 77.5706 279.587 76.7706C280.027 75.9706 280.627 75.3506 281.387 74.9106C282.161 74.4573 283.067 74.2306 284.107 74.2306C285.081 74.2306 285.941 74.444 286.687 74.8706C287.434 75.2973 288.014 75.884 288.427 76.6306C288.854 77.364 289.067 78.184 289.067 79.0906C289.067 79.2373 289.061 79.3906 289.047 79.5506C289.047 79.7106 289.041 79.8773 289.027 80.0506H281.487C281.541 80.824 281.807 81.4306 282.287 81.8706C282.781 82.3106 283.374 82.5306 284.067 82.5306C284.587 82.5306 285.021 82.4173 285.367 82.1906C285.727 81.9506 285.994 81.644 286.167 81.2706H288.767C288.581 81.8973 288.267 82.4706 287.827 82.9906C287.401 83.4973 286.867 83.8973 286.227 84.1906C285.601 84.484 284.887 84.6306 284.087 84.6306ZM284.107 76.3106C283.481 76.3106 282.927 76.4906 282.447 76.8506C281.967 77.1973 281.661 77.7306 281.527 78.4506H286.467C286.427 77.7973 286.187 77.2773 285.747 76.8906C285.307 76.504 284.761 76.3106 284.107 76.3106ZM291.22 84.3906V74.4706H293.5L293.74 76.3306C294.1 75.6906 294.587 75.184 295.2 74.8106C295.827 74.424 296.56 74.2306 297.4 74.2306V76.9306H296.68C296.12 76.9306 295.62 77.0173 295.18 77.1906C294.74 77.364 294.394 77.664 294.14 78.0906C293.9 78.5173 293.78 79.1106 293.78 79.8706V84.3906H291.22ZM303.25 84.6306C302.37 84.6306 301.597 84.4906 300.93 84.2106C300.263 83.9173 299.73 83.5173 299.33 83.0106C298.93 82.504 298.69 81.9173 298.61 81.2506H301.19C301.27 81.6373 301.483 81.9706 301.83 82.2506C302.19 82.5173 302.65 82.6506 303.21 82.6506C303.77 82.6506 304.177 82.5373 304.43 82.3106C304.697 82.084 304.83 81.824 304.83 81.5306C304.83 81.104 304.643 80.8173 304.27 80.6706C303.897 80.5106 303.377 80.3573 302.71 80.2106C302.283 80.1173 301.85 80.004 301.41 79.8706C300.97 79.7373 300.563 79.5706 300.19 79.3706C299.83 79.1573 299.537 78.8906 299.31 78.5706C299.083 78.2373 298.97 77.8306 298.97 77.3506C298.97 76.4706 299.317 75.7306 300.01 75.1306C300.717 74.5306 301.703 74.2306 302.97 74.2306C304.143 74.2306 305.077 74.504 305.77 75.0506C306.477 75.5973 306.897 76.3506 307.03 77.3106H304.61C304.463 76.5773 303.91 76.2106 302.95 76.2106C302.47 76.2106 302.097 76.304 301.83 76.4906C301.577 76.6773 301.45 76.9106 301.45 77.1906C301.45 77.484 301.643 77.7173 302.03 77.8906C302.417 78.064 302.93 78.224 303.57 78.3706C304.263 78.5306 304.897 78.7106 305.47 78.9106C306.057 79.0973 306.523 79.384 306.87 79.7706C307.217 80.144 307.39 80.684 307.39 81.3906C307.403 82.004 307.243 82.5573 306.91 83.0506C306.577 83.544 306.097 83.9306 305.47 84.2106C304.843 84.4906 304.103 84.6306 303.25 84.6306Z" fill="#FFED2E"/>
</g>
<defs>
<filter id="filter0_d_107_1278" x="91.1241" y="65.9907" width="221.286" height="24.6401" filterUnits="userSpaceOnUse" color-interpolation-filters="sRGB">
<feFlood flood-opacity="0" result="BackgroundImageFix"/>
<feColorMatrix in="SourceAlpha" type="matrix" values="0 0 0 0 0 0 0 0 0 0 0 0 0 0 0 0 0 0 127 0" result="hardAlpha"/>
<feOffset dy="1"/>
<feGaussianBlur stdDeviation="2.5"/>
<feComposite in2="hardAlpha" operator="out"/>
<feColorMatrix type="matrix" values="0 0 0 0 0.309804 0 0 0 0 0.278431 0 0 0 0 0.231373 0 0 0 1 0"/>
<feBlend mode="normal" in2="BackgroundImageFix" result="effect1_dropShadow_107_1278"/>
<feBlend mode="normal" in="SourceGraphic" in2="effect1_dropShadow_107_1278" result="shape"/>
</filter>
<linearGradient id="paint0_linear_107_1278" x1="39.3042" y1="38.3027" x2="39.3042" y2="114.664" gradientUnits="userSpaceOnUse">
<stop stop-color="#FFCD29"/>
<stop offset="1" stop-color="#FF9900"/>
</linearGradient>
<linearGradient id="paint1_linear_107_1278" x1="87.8278" y1="57.4609" x2="87.8278" y2="133.822" gradientUnits="userSpaceOnUse">
<stop stop-color="#FFCD29"/>
<stop offset="1" stop-color="#FF9900"/>
</linearGradient>
<linearGradient id="paint2_linear_107_1278" x1="127.973" y1="19.3979" x2="127.973" y2="95.7589" gradientUnits="userSpaceOnUse">
<stop stop-color="#FFCD29"/>
<stop offset="1" stop-color="#FF9900"/>
</linearGradient>
<linearGradient id="paint3_linear_107_1278" x1="87.8278" y1="0.493164" x2="87.8278" y2="76.8541" gradientUnits="userSpaceOnUse">
<stop stop-color="#FFCD29"/>
<stop offset="1" stop-color="#FF9900"/>
</linearGradient>
<linearGradient id="paint4_linear_107_1278" x1="180.007" y1="7.45801" x2="180.007" y2="83.819" gradientUnits="userSpaceOnUse">
<stop stop-color="#FFCD29"/>
<stop offset="1" stop-color="#FF9900"/>
</linearGradient>
<linearGradient id="paint5_linear_107_1278" x1="236.827" y1="19.3979" x2="236.827" y2="95.7589" gradientUnits="userSpaceOnUse">
<stop stop-color="#FFCD29"/>
<stop offset="1" stop-color="#FF9900"/>
</linearGradient>
<linearGradient id="paint6_linear_107_1278" x1="131.757" y1="72.1323" x2="131.757" y2="148.493" gradientUnits="userSpaceOnUse">
<stop stop-color="#FFCD29"/>
<stop offset="1" stop-color="#FF9900"/>
</linearGradient>
<linearGradient id="paint7_linear_107_1278" x1="297.495" y1="57.4609" x2="297.495" y2="133.822" gradientUnits="userSpaceOnUse">
<stop stop-color="#FFCD29"/>
<stop offset="1" stop-color="#FF9900"/>
</linearGradient>
<linearGradient id="paint8_linear_107_1278" x1="342.507" y1="41.2876" x2="342.507" y2="117.649" gradientUnits="userSpaceOnUse">
<stop stop-color="#FFCD29"/>
<stop offset="1" stop-color="#FF9900"/>
</linearGradient>
<linearGradient id="paint9_linear_107_1278" x1="294.084" y1="0.493164" x2="294.084" y2="76.8541" gradientUnits="userSpaceOnUse">
<stop stop-color="#FFCD29"/>
<stop offset="1" stop-color="#FF9900"/>
</linearGradient>
<linearGradient id="paint10_linear_107_1278" x1="255.058" y1="72.1323" x2="255.058" y2="148.493" gradientUnits="userSpaceOnUse">
<stop stop-color="#FFCD29"/>
<stop offset="1" stop-color="#FF9900"/>
</linearGradient>
<linearGradient id="paint11_linear_107_1278" x1="186.403" y1="67.1577" x2="186.403" y2="143.519" gradientUnits="userSpaceOnUse">
<stop stop-color="#FFCD29"/>
<stop offset="1" stop-color="#FF9900"/>
</linearGradient>
</defs>
</svg>
